<?xml version="1.0" encoding="UTF-8" standalone="no"?> <svg width="512" height="512" viewBox="0 0 512 512" fill="none" xmlns="http://www.w3.org/2000/svg">
<path d="M373.333 480H138.667C121.693 480 105.414 473.257 93.4122 461.255C81.4098 449.252 74.667 432.974 74.667 416V160.006C74.667 154.348 76.9146 148.922 80.9153 144.921C84.916 140.921 90.3421 138.673 96 138.673H416C421.658 138.673 427.084 140.921 431.085 144.921C435.085 148.922 437.333 154.348 437.333 160.006V416C437.333 432.974 430.59 449.252 418.588 461.255C406.586 473.257 390.307 480 373.333 480V480Z" fill="#2ECC71"/>
<path opacity="0.25" d="M377 426.666H135C122.225 426.666 109.724 422.958 99.0151 415.992C88.3059 409.027 79.8485 399.103 74.6689 387.425V416C74.6689 432.974 81.4118 449.252 93.4141 461.255C105.416 473.257 121.695 480 138.669 480H373.333C390.307 480 406.585 473.257 418.588 461.255C430.59 449.252 437.333 432.974 437.333 416V387.425C432.153 399.103 423.696 409.027 412.986 415.993C402.276 422.959 389.775 426.666 377 426.666V426.666Z" fill="#105E30"/>
<path d="M149.308 224.012C161.09 224.012 170.641 214.461 170.641 202.679C170.641 190.897 161.09 181.346 149.308 181.346C137.526 181.346 127.975 190.897 127.975 202.679C127.975 214.461 137.526 224.012 149.308 224.012Z" fill="#F1C40F"/>
<path d="M362.679 224.012C374.461 224.012 384.012 214.461 384.012 202.679C384.012 190.897 374.461 181.346 362.679 181.346C350.897 181.346 341.346 190.897 341.346 202.679C341.346 214.461 350.897 224.012 362.679 224.012Z" fill="#F1C40F"/>
<path d="M416 128H372.835C370.175 98.8497 356.714 71.7464 335.096 52.0113C313.478 32.2761 285.264 21.3345 255.992 21.3345C226.721 21.3345 198.507 32.2761 176.889 52.0113C155.271 71.7464 141.81 98.8497 139.15 128H96C87.516 128.01 79.3822 131.384 73.3831 137.383C67.384 143.382 64.0095 151.516 64 160V416C64.0225 435.796 71.8964 454.775 85.8943 468.773C99.8922 482.771 118.871 490.644 138.667 490.667H373.333C393.129 490.644 412.108 482.771 426.106 468.773C440.104 454.775 447.978 435.796 448 416V160C447.99 151.516 444.616 143.382 438.617 137.383C432.618 131.384 424.484 128.01 416 128V128ZM362.68 192.01C364.79 192.01 366.852 192.636 368.606 193.808C370.36 194.98 371.728 196.646 372.535 198.595C373.342 200.544 373.554 202.689 373.142 204.758C372.73 206.827 371.715 208.728 370.223 210.22C368.731 211.712 366.83 212.727 364.761 213.139C362.692 213.551 360.547 213.339 358.598 212.532C356.649 211.725 354.983 210.357 353.811 208.603C352.639 206.849 352.013 204.787 352.013 202.677C352.016 199.849 353.141 197.138 355.141 195.138C357.141 193.138 359.852 192.013 362.68 192.01V192.01ZM255.993 42.67C279.598 42.6983 302.368 51.4109 319.963 67.1474C337.558 82.8839 348.748 104.544 351.4 128H160.589C163.241 104.544 174.43 82.8846 192.025 67.1481C209.619 51.4117 232.388 42.6988 255.993 42.67V42.67ZM149.308 192.01C151.418 192.01 153.48 192.636 155.234 193.808C156.988 194.98 158.356 196.646 159.163 198.595C159.97 200.544 160.182 202.689 159.77 204.758C159.358 206.827 158.343 208.728 156.851 210.22C155.359 211.712 153.458 212.727 151.389 213.139C149.32 213.551 147.175 213.339 145.226 212.532C143.277 211.725 141.611 210.357 140.439 208.603C139.267 206.849 138.641 204.787 138.641 202.677C138.644 199.849 139.769 197.138 141.769 195.138C143.769 193.138 146.48 192.013 149.308 192.01V192.01ZM426.667 416C426.651 430.14 421.027 443.696 411.029 453.695C401.03 463.693 387.474 469.317 373.334 469.333H138.667C124.527 469.317 110.97 463.693 100.972 453.695C90.9731 443.696 85.3489 430.14 85.333 416V160C85.337 157.172 86.4622 154.462 88.4619 152.463C90.4615 150.464 93.1724 149.339 96 149.336H138.66V172.505C131.541 175.017 125.54 179.964 121.717 186.473C117.893 192.982 116.494 200.633 117.766 208.073C119.038 215.514 122.899 222.266 128.667 227.135C134.436 232.004 141.74 234.677 149.289 234.681C156.837 234.686 164.145 232.022 169.919 227.16C175.693 222.298 179.563 215.551 180.844 208.112C182.125 200.673 180.735 193.02 176.919 186.507C173.104 179.993 167.108 175.039 159.993 172.518V149.336H351.993V172.518C344.878 175.039 338.883 179.994 335.067 186.508C331.252 193.021 329.862 200.674 331.144 208.113C332.425 215.552 336.295 222.299 342.07 227.16C347.844 232.022 355.152 234.686 362.7 234.681C370.249 234.676 377.553 232.003 383.321 227.133C389.089 222.264 392.95 215.512 394.222 208.071C395.494 200.631 394.094 192.98 390.27 186.471C386.446 179.963 380.445 175.016 373.326 172.504V149.336H416C418.828 149.339 421.538 150.464 423.538 152.463C425.538 154.462 426.663 157.172 426.667 160V416Z" fill="black"/>
<path d="M256 266.664C256.588 266.653 257.168 266.802 257.677 267.097C258.186 267.391 258.606 267.818 258.89 268.333L275.722 297.486L270.498 297.149C267.675 296.967 264.895 297.914 262.77 299.781C260.645 301.649 259.349 304.284 259.167 307.108C258.984 309.931 259.931 312.711 261.799 314.836C263.667 316.961 266.302 318.257 269.125 318.439L294.32 320.063C294.551 320.078 294.78 320.085 295.01 320.085C296.998 320.084 298.947 319.528 300.636 318.478C302.325 317.429 303.687 315.928 304.568 314.146L315.759 291.515C316.984 288.983 317.159 286.069 316.246 283.408C315.333 280.748 313.406 278.555 310.885 277.308C308.363 276.062 305.451 275.861 302.782 276.751C300.114 277.641 297.905 279.548 296.636 282.059L294.243 286.898L277.366 257.666C275.221 253.898 272.111 250.769 268.356 248.601C264.6 246.433 260.336 245.304 256 245.33C251.664 245.304 247.4 246.433 243.645 248.601C239.89 250.769 236.78 253.897 234.634 257.665L221.819 279.865C221.105 281.079 220.639 282.422 220.447 283.816C220.255 285.211 220.34 286.63 220.699 287.992C221.058 289.353 221.683 290.63 222.538 291.749C223.393 292.868 224.461 293.806 225.68 294.51C226.9 295.214 228.246 295.67 229.643 295.851C231.039 296.032 232.457 295.935 233.816 295.565C235.174 295.195 236.446 294.56 237.558 293.696C238.67 292.832 239.6 291.757 240.294 290.532L253.109 268.332C253.393 267.817 253.813 267.39 254.322 267.096C254.832 266.802 255.412 266.653 256 266.664V266.664Z" fill="black"/>
<path d="M325.193 340.5C324.499 339.275 323.569 338.2 322.457 337.336C321.345 336.472 320.073 335.837 318.715 335.467C317.356 335.097 315.938 335 314.542 335.181C313.145 335.362 311.799 335.818 310.579 336.522C309.36 337.226 308.292 338.164 307.437 339.283C306.582 340.402 305.957 341.679 305.598 343.04C305.239 344.402 305.154 345.821 305.346 347.216C305.538 348.61 306.004 349.953 306.718 351.167L319.533 373.367C319.825 373.874 319.979 374.45 319.979 375.035C319.979 375.621 319.824 376.196 319.532 376.704C319.239 377.211 318.817 377.632 318.31 377.925C317.803 378.218 317.228 378.372 316.642 378.372H282.934L285.882 373.949C286.659 372.784 287.199 371.476 287.471 370.102C287.742 368.728 287.741 367.314 287.466 365.941C287.191 364.567 286.649 363.261 285.869 362.097C285.09 360.933 284.089 359.934 282.924 359.157C281.758 358.381 280.451 357.841 279.077 357.569C277.703 357.297 276.289 357.299 274.915 357.573C273.542 357.848 272.236 358.391 271.072 359.17C269.908 359.949 268.909 360.951 268.132 362.116L254.132 383.122C252.964 384.874 252.341 386.933 252.341 389.039C252.341 391.144 252.964 393.203 254.132 394.955L268.132 415.962C268.909 417.127 269.908 418.129 271.072 418.908C272.236 419.687 273.542 420.23 274.915 420.505C276.289 420.779 277.703 420.781 279.077 420.509C280.451 420.237 281.758 419.697 282.924 418.921C284.089 418.144 285.09 417.145 285.869 415.981C286.649 414.817 287.191 413.511 287.466 412.137C287.741 410.764 287.742 409.35 287.471 407.976C287.199 406.602 286.659 405.294 285.882 404.129L282.933 399.705H316.641C320.972 399.705 325.226 398.565 328.976 396.4C332.727 394.235 335.841 391.121 338.007 387.371C340.172 383.62 341.312 379.366 341.312 375.035C341.312 370.705 340.172 366.45 338.007 362.7L325.193 340.5Z" fill="black"/>
<path d="M209.323 344.174L211.68 348.94C212.293 350.208 213.152 351.342 214.206 352.277C215.26 353.211 216.488 353.928 217.821 354.385C219.153 354.842 220.563 355.031 221.969 354.94C223.374 354.85 224.748 354.481 226.011 353.857C227.274 353.233 228.4 352.364 229.325 351.302C230.251 350.24 230.957 349.005 231.402 347.669C231.848 346.333 232.024 344.922 231.921 343.517C231.818 342.112 231.438 340.741 230.803 339.484L219.612 316.853C218.676 314.967 217.205 313.4 215.381 312.347C213.558 311.295 211.465 310.804 209.364 310.936L184.169 312.561C181.346 312.743 178.711 314.039 176.843 316.164C174.975 318.289 174.028 321.069 174.211 323.892C174.393 326.716 175.689 329.351 177.814 331.219C179.939 333.086 182.719 334.033 185.542 333.851L190.847 333.509L173.994 362.7C171.829 366.451 170.689 370.705 170.688 375.036C170.688 379.366 171.828 383.621 173.994 387.371C176.159 391.122 179.274 394.237 183.024 396.402C186.775 398.567 191.029 399.707 195.36 399.707H220.989C223.8 399.68 226.487 398.544 228.465 396.547C230.443 394.549 231.553 391.852 231.553 389.041C231.553 386.229 230.443 383.532 228.465 381.534C226.487 379.537 223.8 378.401 220.989 378.374H195.359C194.773 378.374 194.198 378.22 193.69 377.927C193.183 377.634 192.762 377.213 192.469 376.705C192.176 376.198 192.022 375.623 192.021 375.037C192.021 374.451 192.175 373.875 192.468 373.368L209.323 344.174Z" fill="black"/>
</svg>
