<?xml version="1.0" encoding="UTF-8" standalone="no"?> <svg xmlns="http://www.w3.org/2000/svg" viewBox="0 0 48 48"><defs><style>.cls-1{fill:#00cf66;}.cls-2{fill:#00b157;}.cls-3{fill:#00893e;}</style></defs><title>Green</title><g id="_21_-_30" data-name="21 - 30"><g id="Greem"><path class="cls-1" d="M26.1.851a3.006,3.006,0,0,0-4.19.011C18.026,4.692,9,14.932,9,27.271,9,34.7,16.43,42,24,42s15-7.371,15-14.881C39,14.784,29.976,4.64,26.1.851Z"/><path class="cls-2" d="M21.907.862C18.026,4.692,9,14.932,9,27.271,9,34.7,16.43,42,24,42V.006A2.98,2.98,0,0,0,21.907.862Z"/><path class="cls-3" d="M30.768,28.359a1,1,0,0,0-1.408-.128L25,31.865V24.5l3.6-2.7a1,1,0,1,0-1.2-1.6L25,22V15a1,1,0,0,0-2,0v7l-2.4-1.8a1,1,0,1,0-1.2,1.6L23,24.5v7.365l-4.36-3.634a1,1,0,0,0-1.28,1.538l5.64,4.7V45a1,1,0,0,0,2,0V34.469l5.64-4.7A1,1,0,0,0,30.768,28.359Z"/></g></g></svg>