<svg width="141" height="141" viewBox="0 0 141 141" fill="none" xmlns="http://www.w3.org/2000/svg">
<path d="M75.4151 98.219C75.4281 89.1565 78.7031 80.4017 84.6416 73.556C90.5801 66.7104 98.7851 62.2315 107.755 60.939V69.989C107.744 79.0521 104.469 87.808 98.5303 94.6541C92.5914 101.5 84.3858 105.978 75.4151 107.269V98.219ZM70.105 76.219C67.1734 70.4758 63.124 65.3761 58.1949 61.219C59.2655 55.8163 61.9217 50.8551 65.8247 46.969L70.105 42.689L74.395 46.969C78.2981 50.8551 80.9543 55.8163 82.0249 61.219C77.0902 65.393 73.0378 70.5095 70.105 76.269V76.219ZM64.8047 98.219V107.219C55.833 105.929 47.6261 101.451 41.6856 94.6049C35.745 87.759 32.4685 79.0029 32.4551 69.939V60.889C41.4353 62.1807 49.6487 66.6657 55.5904 73.522C61.532 80.3783 64.8033 89.1464 64.8047 98.219V98.219ZM75.4151 140.019V117.949C87.2225 116.626 98.1287 111.001 106.051 102.147C113.974 93.2924 118.357 81.8302 118.365 69.949V49.949H113.065C105.522 49.9458 98.0841 51.7205 91.355 55.129C89.5014 49.2501 86.2562 43.9053 81.895 39.549L70.105 27.769L58.3247 39.549C53.9636 43.9053 50.7184 49.2501 48.8648 55.129C42.1356 51.7205 34.698 49.9458 27.1548 49.949H21.855V69.949C21.8623 81.8302 26.2459 93.2924 34.1685 102.147C42.0911 111.001 52.9973 116.626 64.8047 117.949V140.019C46.722 138.647 29.8743 130.321 17.7998 116.791C5.72534 103.26 -0.636273 85.5773 0.0503179 67.4556C0.736909 49.3338 8.41827 32.1831 21.482 19.605C34.5456 7.02687 51.9751 0 70.1099 0C88.2446 0 105.674 7.02687 118.738 19.605C131.802 32.1831 139.483 49.3338 140.169 67.4556C140.856 85.5773 134.494 103.26 122.42 116.791C110.345 130.321 93.4978 138.647 75.4151 140.019V140.019Z" fill="#52C02B"/>
</svg>
