<?xml version="1.0" encoding="UTF-8" standalone="no"?> <svg id="Layer_1" data-name="Layer 1" xmlns="http://www.w3.org/2000/svg" viewBox="0 0 512 512"><defs><style>.cls-1{fill:#ce7149;}.cls-2{fill:#60301f;}.cls-2,.cls-4,.cls-6{opacity:0.25;}.cls-3{fill:#ffd18d;}.cls-4{fill:#965930;}.cls-5{fill:#2ecc71;}.cls-6{fill:#105e30;}</style></defs><title>Reforestation</title><path class="cls-1" d="M266.674,256a10.667,10.667,0,0,0,10.667-10.667V150.823a10.667,10.667,0,1,0-21.333,0v94.511A10.667,10.667,0,0,0,266.674,256Z"/><rect class="cls-2" x="256.007" y="160" width="21.333" height="42.667"/><path class="cls-1" d="M418.674,333.974A160.051,160.051,0,0,0,267.453,224l-.2,0h-.587l-.2,0A160.051,160.051,0,0,0,115.234,333.983a11.212,11.212,0,0,0,0,9.165A160.052,160.052,0,0,0,266.459,453.13l.2,0h.587l.2,0A160.052,160.052,0,0,0,418.674,343.157a10.633,10.633,0,0,0,.98-4.47v-.244A10.633,10.633,0,0,0,418.674,333.974Z"/><path class="cls-2" d="M266.667,224h0l-.2,0A160.051,160.051,0,0,0,115.234,333.983a11.212,11.212,0,0,0,0,9.165A160.052,160.052,0,0,0,266.459,453.13l.2,0h0Z"/><path class="cls-3" d="M486.531,340.055A38.921,38.921,0,0,0,441.478,319.9L352.817,344.1a102.33,102.33,0,0,1-17.243,3.147c8.28-8.947,16.638-21.255,16.908-39.057a22.76,22.76,0,0,0-22.758-23.084h-.053l-127.428.291a124.87,124.87,0,0,0-40.265,6.757l-61.852,21.2L64,327.227V429.591l37.069,9.221,88.853,19.763a125.4,125.4,0,0,0,27.143,2.981h76.045a125.893,125.893,0,0,0,52.929-11.749l122.148-57.045a38.959,38.959,0,0,0,18.344-52.708Z"/><path class="cls-4" d="M478.948,351.113l-125.4,58.564a129.246,129.246,0,0,1-54.338,12.062H221.14a128.74,128.74,0,0,1-27.866-3.06l-91.218-20.289L64,388.922v40.669l37.069,9.221,88.853,19.763a125.4,125.4,0,0,0,27.143,2.981h76.046a125.893,125.893,0,0,0,52.929-11.749l122.148-57.045a38.954,38.954,0,0,0,20.345-47.926A40.136,40.136,0,0,1,478.948,351.113Z"/><path class="cls-4" d="M269.183,354.22c17.5,0,48.134,4.869,66.392-6.968,8.28-8.947,16.638-21.255,16.908-39.057a1.2,1.2,0,0,1-.008-.233C347.933,329.11,302.046,349.968,269.183,354.22Z"/><path class="cls-5" d="M46.181,277.333H81.82a24.846,24.846,0,0,1,24.846,24.846V444.486a24.847,24.847,0,0,1-24.847,24.847H46.179a24.845,24.845,0,0,1-24.845-24.845V302.181A24.847,24.847,0,0,1,46.181,277.333Z"/><path class="cls-6" d="M21.333,394.667v49.819A24.876,24.876,0,0,0,46.18,469.333H82.255A24.875,24.875,0,0,0,107.1,444.486V394.667Z"/><path class="cls-5" d="M417.144,53.131a10.666,10.666,0,0,0-8.789-8.71A135.458,135.458,0,0,0,384.1,42.688a139.074,139.074,0,0,0-87.224,32.376,119.039,119.039,0,0,0-30.2,38.018,119.04,119.04,0,0,0-30.2-38.018A139.076,139.076,0,0,0,149.25,42.688,136.071,136.071,0,0,0,124.99,44.42a10.666,10.666,0,0,0-8.789,8.71,95,95,0,0,0-1.179,22.079c1.806,28.919,16.252,56.209,40.677,76.844a139.07,139.07,0,0,0,87.224,32.376q1.206.021,2.411.021a135.677,135.677,0,0,0,21.338-1.681,135.677,135.677,0,0,0,21.338,1.681q1.2,0,2.411-.021a139.07,139.07,0,0,0,87.224-32.376c24.425-20.635,38.871-47.925,40.677-76.843A95,95,0,0,0,417.144,53.131Z"/><path class="cls-6" d="M116.2,53.131a10.638,10.638,0,0,1,2.127-4.767c3.037,34.268,20.565,66.486,49.61,91.024a169.024,169.024,0,0,0,79.476,37,10.673,10.673,0,0,1-.713-2.4,95.007,95.007,0,0,1-1.179-22.08,103.285,103.285,0,0,1,15.815-48.387q2.927,4.685,5.33,9.575A101.8,101.8,0,0,0,256.2,151.906a95.007,95.007,0,0,0,1.179,22.08,10.637,10.637,0,0,0,1.617,4.061q3.82.417,7.668.671a170.054,170.054,0,0,0,98.746-39.332c29.045-24.538,46.573-56.756,49.61-91.025a10.638,10.638,0,0,1,2.129,4.769,95,95,0,0,1,1.179,22.079c-1.806,28.918-16.252,56.208-40.677,76.843a139.07,139.07,0,0,1-87.224,32.376q-1.206.021-2.411.021a135.689,135.689,0,0,1-21.337-1.681l.013,0c-1.112.177-2.237.314-3.358.463-.658.088-1.31.194-1.971.272l-.022,0h0a136.322,136.322,0,0,1-16,.941q-1.2,0-2.411-.021A139.07,139.07,0,0,1,155.7,152.053c-24.425-20.635-38.871-47.925-40.677-76.844A95,95,0,0,1,116.2,53.131Z"/></svg>